<svg fill="#000000" xmlns="http://www.w3.org/2000/svg"  viewBox="0 0 80 80" width="480px" height="480px"><path d="M 40 5 C 20.685323 5 5 20.685323 5 40 C 5 59.314677 20.685323 75 40 75 C 59.314677 75 75 59.314677 75 40 C 75 20.685323 59.314677 5 40 5 z M 40 7 C 58.233323 7 73 21.766677 73 40 C 73 58.233323 58.233323 73 40 73 C 21.766677 73 7 58.233323 7 40 C 7 21.766677 21.766677 7 40 7 z M 39.068359 10.023438 L 38.267578 10.425781 L 38.109375 11.306641 L 38.720703 11.960938 L 39.068359 12.023438 L 39.869141 11.623047 L 40.027344 10.740234 L 39.416016 10.085938 L 39.068359 10.023438 z M 43.0625 10.169922 L 42.259766 10.572266 L 42.103516 11.455078 L 42.714844 12.109375 L 43.0625 12.169922 L 43.863281 11.769531 L 44.021484 10.886719 L 43.408203 10.232422 L 43.0625 10.169922 z M 35.091797 10.421875 L 34.291016 10.824219 L 34.132812 11.705078 L 34.746094 12.359375 L 35.091797 12.421875 L 35.892578 12.021484 L 36.050781 11.138672 L 35.439453 10.484375 L 35.091797 10.421875 z M 47 10.851562 L 46.199219 11.251953 L 46.041016 12.134766 L 46.652344 12.789062 L 47 12.851562 L 47.800781 12.449219 L 47.958984 11.568359 L 47.347656 10.914062 L 47 10.851562 z M 31.207031 11.361328 L 30.40625 11.763672 L 30.248047 12.644531 L 30.861328 13.298828 L 31.207031 13.361328 L 32.007812 12.960938 L 32.166016 12.078125 L 31.554688 11.423828 L 31.207031 11.361328 z M 49.121094 11.46875 L 48.320312 11.869141 L 48.162109 12.751953 L 48.775391 13.40625 L 49.121094 13.46875 L 49.923828 13.066406 L 50.080078 12.185547 L 49.46875 11.53125 L 49.121094 11.46875 z M 27.490234 12.832031 L 26.689453 13.234375 L 26.53125 14.115234 L 27.144531 14.769531 L 27.490234 14.832031 L 28.292969 14.429688 L 28.449219 13.548828 L 27.837891 12.894531 L 27.490234 12.832031 z M 52.810547 13.003906 L 52.009766 13.404297 L 51.851562 14.287109 L 52.462891 14.941406 L 52.810547 15.003906 L 53.611328 14.601562 L 53.769531 13.720703 L 53.158203 13.066406 L 52.810547 13.003906 z M 24.015625 14.806641 L 23.214844 15.208984 L 23.056641 16.089844 L 23.669922 16.744141 L 24.015625 16.806641 L 24.816406 16.40625 L 24.974609 15.523438 L 24.363281 14.869141 L 24.015625 14.806641 z M 40 15 C 26.197303 15 15 26.197303 15 40 C 15 53.802697 26.197303 65 40 65 C 53.802697 65 65 53.802697 65 40 C 65 26.197303 53.802697 15 40 15 z M 56.263672 15.009766 L 55.462891 15.412109 L 55.304688 16.294922 L 55.917969 16.949219 L 56.263672 17.009766 L 57.066406 16.609375 L 57.222656 15.726562 L 56.611328 15.072266 L 56.263672 15.009766 z M 40 17 C 52.723303 17 63 27.276697 63 40 C 63 52.723303 52.723303 63 40 63 C 27.276697 63 17 52.723303 17 40 C 17 27.276697 27.276697 17 40 17 z M 20.84375 17.238281 L 20.042969 17.640625 L 19.884766 18.521484 L 20.498047 19.175781 L 20.84375 19.238281 L 21.646484 18.835938 L 21.802734 17.955078 L 21.191406 17.300781 L 20.84375 17.238281 z M 59.416016 17.466797 L 58.615234 17.869141 L 58.457031 18.751953 L 59.070312 19.40625 L 59.416016 19.466797 L 60.21875 19.066406 L 60.375 18.183594 L 59.763672 17.529297 L 59.416016 17.466797 z M 40 20 L 39.199219 20.402344 L 39.041016 21.283203 L 39.652344 21.9375 L 40 22 L 40.800781 21.597656 L 40.958984 20.716797 L 40.347656 20.0625 L 40 20 z M 18.035156 20.080078 L 17.234375 20.480469 L 17.076172 21.363281 L 17.6875 22.017578 L 18.035156 22.080078 L 18.835938 21.677734 L 18.994141 20.796875 L 18.380859 20.142578 L 18.035156 20.080078 z M 43.367188 20.314453 L 42.564453 20.714844 L 42.408203 21.597656 L 43.019531 22.251953 L 43.367188 22.314453 L 44.167969 21.912109 L 44.326172 21.03125 L 43.712891 20.376953 L 43.367188 20.314453 z M 62.181641 20.353516 L 61.380859 20.755859 L 61.222656 21.636719 L 61.833984 22.291016 L 62.181641 22.353516 L 62.982422 21.953125 L 63.140625 21.070312 L 62.527344 20.416016 L 62.181641 20.353516 z M 36.029297 20.419922 L 35.226562 20.822266 L 35.070312 21.703125 L 35.681641 22.357422 L 36.029297 22.419922 L 36.830078 22.019531 L 36.988281 21.136719 L 36.375 20.482422 L 36.029297 20.419922 z M 47.203125 21.416016 L 46.400391 21.818359 L 46.244141 22.699219 L 46.855469 23.353516 L 47.203125 23.416016 L 48.003906 23.015625 L 48.162109 22.132812 L 47.548828 21.478516 L 47.203125 21.416016 z M 32.236328 21.664062 L 31.433594 22.064453 L 31.277344 22.947266 L 31.888672 23.601562 L 32.236328 23.664062 L 33.037109 23.261719 L 33.195312 22.380859 L 32.582031 21.724609 L 32.236328 21.664062 z M 15.638672 23.277344 L 14.837891 23.679688 L 14.679688 24.560547 L 15.292969 25.214844 L 15.638672 25.277344 L 16.439453 24.876953 L 16.597656 23.994141 L 15.986328 23.339844 L 15.638672 23.277344 z M 50.71875 23.304688 L 49.917969 23.707031 L 49.759766 24.587891 L 50.373047 25.242188 L 50.71875 25.304688 L 51.521484 24.904297 L 51.677734 24.021484 L 51.066406 23.367188 L 50.71875 23.304688 z M 64.537109 23.580078 L 63.736328 23.980469 L 63.578125 24.863281 L 64.191406 25.517578 L 64.537109 25.580078 L 65.339844 25.177734 L 65.496094 24.294922 L 64.884766 23.640625 L 64.537109 23.580078 z M 28.787109 23.673828 L 27.986328 24.074219 L 27.828125 24.957031 L 28.441406 25.611328 L 28.787109 25.673828 L 29.589844 25.271484 L 29.746094 24.388672 L 29.134766 23.734375 L 28.787109 23.673828 z M 40 25 C 31.701382 25 25 31.701382 25 40 C 25 48.298618 31.701382 55 40 55 C 48.298618 55 55 48.298618 55 40 C 55 31.701382 48.298618 25 40 25 z M 53.753906 25.898438 L 52.953125 26.300781 L 52.794922 27.181641 L 53.40625 27.837891 L 53.753906 27.898438 L 54.554688 27.498047 L 54.712891 26.615234 L 54.099609 25.960938 L 53.753906 25.898438 z M 25.833984 26.353516 L 25.03125 26.755859 L 24.875 27.638672 L 25.486328 28.292969 L 25.833984 28.353516 L 26.634766 27.953125 L 26.792969 27.070312 L 26.179688 26.416016 L 25.833984 26.353516 z M 13.703125 26.773438 L 12.902344 27.175781 L 12.744141 28.058594 L 13.357422 28.712891 L 13.703125 28.773438 L 14.505859 28.373047 L 14.662109 27.490234 L 14.050781 26.835938 L 13.703125 26.773438 z M 41.035156 27.050781 C 45.912988 27.428642 49.993996 30.444545 51.876953 34.695312 L 43.544922 34.695312 L 41.035156 27.050781 z M 38.935547 27.052734 L 36.425781 34.695312 L 28.123047 34.695312 C 30.002262 30.452993 34.070549 27.440325 38.935547 27.052734 z M 66.447266 27.089844 L 65.646484 27.492188 L 65.488281 28.373047 L 66.101562 29.027344 L 66.447266 29.089844 L 67.248047 28.6875 L 67.40625 27.806641 L 66.794922 27.152344 L 66.447266 27.089844 z M 56.183594 29.064453 L 55.382812 29.464844 L 55.224609 30.347656 L 55.835938 31.001953 L 56.183594 31.064453 L 56.984375 30.662109 L 57.142578 29.78125 L 56.529297 29.126953 L 56.183594 29.064453 z M 23.498047 29.589844 L 22.697266 29.992188 L 22.539062 30.873047 L 23.150391 31.527344 L 23.498047 31.589844 L 24.298828 31.189453 L 24.457031 30.306641 L 23.845703 29.652344 L 23.498047 29.589844 z M 39.984375 30.267578 L 41.869141 36.007812 A 1.0001 1.0001 0 0 0 42.820312 36.695312 L 48.986328 36.695312 L 44.023438 40.439453 A 1.0001 1.0001 0 0 0 43.673828 41.544922 L 45.564453 47.392578 L 40.572266 43.777344 A 1.0001 1.0001 0 0 0 39.398438 43.777344 L 34.404297 47.392578 L 36.296875 41.544922 A 1.0001 1.0001 0 0 0 35.947266 40.439453 L 30.984375 36.695312 L 37.150391 36.695312 A 1.0001 1.0001 0 0 0 38.099609 36.007812 L 39.984375 30.267578 z M 12.267578 30.503906 L 11.466797 30.90625 L 11.308594 31.787109 L 11.921875 32.441406 L 12.267578 32.503906 L 13.068359 32.103516 L 13.226562 31.220703 L 12.615234 30.566406 L 12.267578 30.503906 z M 67.830078 30.839844 L 67.029297 31.242188 L 66.871094 32.123047 L 67.482422 32.777344 L 67.830078 32.839844 L 68.630859 32.439453 L 68.789062 31.556641 L 68.175781 30.902344 L 67.830078 30.839844 z M 57.900391 32.666016 L 57.099609 33.066406 L 56.941406 33.949219 L 57.552734 34.603516 L 57.900391 34.666016 L 58.701172 34.263672 L 58.859375 33.382812 L 58.248047 32.728516 L 57.900391 32.666016 z M 21.888672 33.244141 L 21.087891 33.644531 L 20.929688 34.527344 L 21.541016 35.181641 L 21.888672 35.244141 L 22.689453 34.841797 L 22.847656 33.958984 L 22.236328 33.304688 L 21.888672 33.244141 z M 11.367188 34.398438 L 10.566406 34.798828 L 10.408203 35.681641 L 11.021484 36.335938 L 11.367188 36.398438 L 12.167969 35.996094 L 12.326172 35.115234 L 11.714844 34.460938 L 11.367188 34.398438 z M 68.683594 34.744141 L 67.882812 35.144531 L 67.724609 36.027344 L 68.335938 36.681641 L 68.683594 36.744141 L 69.484375 36.341797 L 69.642578 35.460938 L 69.03125 34.806641 L 68.683594 34.744141 z M 52.525391 36.529297 C 52.826876 37.634358 53 38.793834 53 40 C 53 43.984618 51.238796 47.519814 48.453125 49.896484 A 1.0001 1.0001 0 0 0 48.410156 49.691406 L 45.794922 41.607422 L 52.525391 36.529297 z M 58.824219 36.546875 L 58.023438 36.949219 L 57.865234 37.830078 L 58.478516 38.484375 L 58.824219 38.546875 L 59.626953 38.146484 L 59.783203 37.263672 L 59.171875 36.609375 L 58.824219 36.546875 z M 27.470703 36.548828 L 34.173828 41.607422 L 31.558594 49.691406 A 1.0001 1.0001 0 0 0 31.517578 49.873047 C 28.748428 47.496566 27 43.971025 27 40 C 27 38.800799 27.172576 37.648202 27.470703 36.548828 z M 21.091797 37.15625 L 20.291016 37.556641 L 20.132812 38.439453 L 20.746094 39.09375 L 21.091797 39.15625 L 21.894531 38.753906 L 22.050781 37.873047 L 21.439453 37.21875 L 21.091797 37.15625 z M 11.015625 38.378906 L 10.214844 38.78125 L 10.056641 39.662109 L 10.667969 40.316406 L 11.015625 40.378906 L 11.816406 39.976562 L 11.974609 39.095703 L 11.363281 38.441406 L 11.015625 38.378906 z M 68.994141 38.728516 L 68.193359 39.128906 L 68.035156 40.011719 L 68.646484 40.666016 L 68.994141 40.728516 L 69.794922 40.326172 L 69.953125 39.445312 L 69.341797 38.791016 L 68.994141 38.728516 z M 58.921875 40.537109 L 58.121094 40.9375 L 57.962891 41.820312 L 58.576172 42.474609 L 58.921875 42.537109 L 59.724609 42.134766 L 59.880859 41.253906 L 59.269531 40.599609 L 58.921875 40.537109 z M 21.128906 41.148438 L 20.328125 41.550781 L 20.169922 42.431641 L 20.78125 43.085938 L 21.128906 43.148438 L 21.929688 42.748047 L 22.087891 41.865234 L 21.476562 41.210938 L 21.128906 41.148438 z M 11.201172 42.371094 L 10.400391 42.771484 L 10.242188 43.654297 L 10.853516 44.308594 L 11.201172 44.371094 L 12.001953 43.96875 L 12.160156 43.087891 L 11.548828 42.433594 L 11.201172 42.371094 z M 68.753906 42.716797 L 67.953125 43.119141 L 67.794922 44.001953 L 68.408203 44.65625 L 68.753906 44.716797 L 69.554688 44.316406 L 69.712891 43.433594 L 69.101562 42.779297 L 68.753906 42.716797 z M 58.197266 44.462891 L 57.396484 44.863281 L 57.238281 45.746094 L 57.851562 46.400391 L 58.197266 46.462891 L 58.998047 46.060547 L 59.15625 45.177734 L 58.544922 44.523438 L 58.197266 44.462891 z M 21.994141 45.044922 L 21.193359 45.447266 L 21.035156 46.328125 L 21.646484 46.984375 L 21.994141 47.044922 L 22.794922 46.644531 L 22.953125 45.761719 L 22.341797 45.107422 L 21.994141 45.044922 z M 39.984375 45.822266 L 46.873047 50.810547 A 1.0001 1.0001 0 0 0 47.076172 50.921875 C 45.043959 52.23389 42.620554 53 40 53 C 37.374976 53 34.948384 52.230205 32.914062 50.914062 A 1.0001 1.0001 0 0 0 33.095703 50.810547 L 39.984375 45.822266 z M 11.927734 46.300781 L 11.126953 46.701172 L 10.96875 47.583984 L 11.582031 48.238281 L 11.927734 48.300781 L 12.730469 47.898438 L 12.886719 47.017578 L 12.275391 46.363281 L 11.927734 46.300781 z M 67.976562 46.636719 L 67.173828 47.039062 L 67.017578 47.919922 L 67.628906 48.574219 L 67.976562 48.636719 L 68.777344 48.236328 L 68.935547 47.353516 L 68.322266 46.699219 L 67.976562 46.636719 z M 56.662109 48.146484 L 55.861328 48.548828 L 55.703125 49.429688 L 56.314453 50.083984 L 56.662109 50.146484 L 57.462891 49.746094 L 57.621094 48.863281 L 57.007812 48.208984 L 56.662109 48.146484 z M 23.658203 48.671875 L 22.855469 49.074219 L 22.699219 49.957031 L 23.310547 50.611328 L 23.658203 50.671875 L 24.458984 50.271484 L 24.617188 49.388672 L 24.003906 48.734375 L 23.658203 48.671875 z M 13.201172 50.089844 L 12.400391 50.490234 L 12.242188 51.373047 L 12.855469 52.027344 L 13.201172 52.089844 L 14.001953 51.6875 L 14.160156 50.806641 L 13.548828 50.152344 L 13.201172 50.089844 z M 66.664062 50.412109 L 65.863281 50.8125 L 65.705078 51.695312 L 66.316406 52.349609 L 66.664062 52.412109 L 67.464844 52.009766 L 67.623047 51.128906 L 67.011719 50.474609 L 66.664062 50.412109 z M 54.373047 51.417969 L 53.572266 51.820312 L 53.414062 52.701172 L 54.027344 53.355469 L 54.373047 53.417969 L 55.173828 53.017578 L 55.332031 52.134766 L 54.720703 51.480469 L 54.373047 51.417969 z M 26.039062 51.873047 L 25.238281 52.275391 L 25.080078 53.15625 L 25.693359 53.810547 L 26.039062 53.873047 L 26.841797 53.472656 L 26.998047 52.589844 L 26.386719 51.935547 L 26.039062 51.873047 z M 14.986328 53.666016 L 14.185547 54.066406 L 14.027344 54.949219 L 14.638672 55.603516 L 14.986328 55.666016 L 15.787109 55.263672 L 15.945312 54.380859 L 15.332031 53.726562 L 14.986328 53.666016 z M 64.839844 53.96875 L 64.039062 54.369141 L 63.880859 55.251953 L 64.492188 55.90625 L 64.839844 55.96875 L 65.640625 55.566406 L 65.798828 54.685547 L 65.1875 54.03125 L 64.839844 53.96875 z M 51.458984 54.142578 L 50.658203 54.544922 L 50.5 55.425781 L 51.111328 56.080078 L 51.458984 56.142578 L 52.259766 55.742188 L 52.417969 54.859375 L 51.804688 54.205078 L 51.458984 54.142578 z M 29.033203 54.511719 L 28.232422 54.912109 L 28.074219 55.794922 L 28.6875 56.449219 L 29.033203 56.511719 L 29.835938 56.109375 L 29.992188 55.228516 L 29.380859 54.574219 L 29.033203 54.511719 z M 48.041016 56.203125 L 47.240234 56.605469 L 47.082031 57.486328 L 47.695312 58.140625 L 48.041016 58.203125 L 48.84375 57.802734 L 49 56.919922 L 48.388672 56.265625 L 48.041016 56.203125 z M 32.511719 56.470703 L 31.710938 56.871094 L 31.552734 57.753906 L 32.166016 58.408203 L 32.511719 58.470703 L 33.314453 58.068359 L 33.470703 57.185547 L 32.859375 56.53125 L 32.511719 56.470703 z M 17.244141 56.962891 L 16.443359 57.363281 L 16.285156 58.246094 L 16.896484 58.900391 L 17.244141 58.962891 L 18.044922 58.560547 L 18.203125 57.679688 L 17.589844 57.025391 L 17.244141 56.962891 z M 62.541016 57.238281 L 61.738281 57.638672 L 61.582031 58.521484 L 62.193359 59.175781 L 62.541016 59.238281 L 63.341797 58.835938 L 63.5 57.953125 L 62.886719 57.298828 L 62.541016 57.238281 z M 44.269531 57.503906 L 43.46875 57.904297 L 43.310547 58.787109 L 43.921875 59.441406 L 44.269531 59.503906 L 45.070312 59.101562 L 45.228516 58.220703 L 44.617188 57.566406 L 44.269531 57.503906 z M 36.330078 57.640625 L 35.529297 58.041016 L 35.371094 58.923828 L 35.982422 59.578125 L 36.330078 59.640625 L 37.130859 59.238281 L 37.289062 58.357422 L 36.675781 57.701172 L 36.330078 57.640625 z M 40.306641 57.984375 L 39.505859 58.386719 L 39.347656 59.267578 L 39.960938 59.921875 L 40.306641 59.984375 L 41.107422 59.583984 L 41.265625 58.701172 L 40.654297 58.046875 L 40.306641 57.984375 z M 19.931641 59.919922 L 19.128906 60.322266 L 18.972656 61.203125 L 19.583984 61.857422 L 19.931641 61.919922 L 20.732422 61.519531 L 20.890625 60.636719 L 20.277344 59.982422 L 19.931641 59.919922 z M 59.816406 60.162109 L 59.015625 60.5625 L 58.857422 61.445312 L 59.46875 62.099609 L 59.816406 62.162109 L 60.617188 61.759766 L 60.775391 60.878906 L 60.164062 60.224609 L 59.816406 60.162109 z M 22.996094 62.484375 L 22.195312 62.884766 L 22.037109 63.767578 L 22.648438 64.421875 L 22.996094 64.484375 L 23.796875 64.082031 L 23.955078 63.201172 L 23.34375 62.546875 L 22.996094 62.484375 z M 56.71875 62.685547 L 55.917969 63.087891 L 55.759766 63.970703 L 56.371094 64.625 L 56.71875 64.685547 L 57.519531 64.285156 L 57.677734 63.402344 L 57.066406 62.748047 L 56.71875 62.685547 z M 26.382812 64.603516 L 25.582031 65.005859 L 25.423828 65.888672 L 26.037109 66.542969 L 26.382812 66.603516 L 27.185547 66.203125 L 27.341797 65.320312 L 26.730469 64.666016 L 26.382812 64.603516 z M 53.304688 64.763672 L 52.503906 65.166016 L 52.345703 66.046875 L 52.958984 66.701172 L 53.304688 66.763672 L 54.105469 66.363281 L 54.263672 65.480469 L 53.652344 64.826172 L 53.304688 64.763672 z M 30.03125 66.240234 L 29.228516 66.640625 L 29.072266 67.523438 L 29.683594 68.177734 L 30.03125 68.240234 L 30.832031 67.837891 L 30.990234 66.957031 L 30.376953 66.302734 L 30.03125 66.240234 z M 49.638672 66.351562 L 48.837891 66.753906 L 48.679688 67.634766 L 49.291016 68.291016 L 49.638672 68.351562 L 50.439453 67.951172 L 50.597656 67.068359 L 49.984375 66.414062 L 49.638672 66.351562 z M 33.871094 67.345703 L 33.070312 67.746094 L 32.912109 68.628906 L 33.525391 69.283203 L 33.871094 69.345703 L 34.671875 68.943359 L 34.830078 68.060547 L 34.21875 67.40625 L 33.871094 67.345703 z M 45.787109 67.419922 L 44.986328 67.822266 L 44.828125 68.705078 L 45.439453 69.359375 L 45.787109 69.419922 L 46.587891 69.019531 L 46.746094 68.136719 L 46.134766 67.482422 L 45.787109 67.419922 z M 37.828125 67.910156 L 37.027344 68.3125 L 36.869141 69.193359 L 37.480469 69.847656 L 37.828125 69.910156 L 38.628906 69.509766 L 38.787109 68.626953 L 38.173828 67.972656 L 37.828125 67.910156 z M 41.824219 67.9375 L 41.023438 68.337891 L 40.865234 69.220703 L 41.476562 69.875 L 41.824219 69.9375 L 42.625 69.535156 L 42.783203 68.654297 L 42.169922 68 L 41.824219 67.9375 z"/></svg>